<?xml version="1.0" encoding="UTF-8" standalone="no"?>
<svg
   xmlns:dc="http://purl.org/dc/elements/1.1/"
   xmlns:cc="http://creativecommons.org/ns#"
   xmlns:rdf="http://www.w3.org/1999/02/22-rdf-syntax-ns#"
   xmlns:svg="http://www.w3.org/2000/svg"
   xmlns="http://www.w3.org/2000/svg"
   width="42"
   height="42"
   viewBox="0 0 42 42.000001"
   id="svg2"
   version="1.1">
  <defs
     id="defs4" />
  <metadata
     id="metadata7">
    <rdf:RDF>
      <cc:Work
         rdf:about="">
        <dc:format>image/svg+xml</dc:format>
        <dc:type
           rdf:resource="http://purl.org/dc/dcmitype/StillImage" />
        <dc:title></dc:title>
      </cc:Work>
    </rdf:RDF>
  </metadata>
  <g
     id="layer1"
     transform="translate(0,-1010.3621)">
    <g
       id="text4136"
       style="font-style:normal;font-variant:normal;font-weight:normal;font-stretch:normal;font-size:45px;line-height:125%;font-family:FontAwesome;-inkscape-font-specification:FontAwesome;letter-spacing:0px;word-spacing:0px;fill:#808000;fill-opacity:1;stroke:none;stroke-width:1px;stroke-linecap:butt;stroke-linejoin:miter;stroke-opacity:1">
      <path
         id="path4166"
         style=""
         d="m 27.428571,1043.4156 0,-4.0178 q 0,-0.3516 -0.226004,-0.5776 -0.226004,-0.226 -0.577567,-0.226 l -2.410714,0 0,-12.8572 q 0,-0.3515 -0.226005,-0.5775 -0.226004,-0.226 -0.577567,-0.226 l -8.035714,0 q -0.351562,0 -0.577567,0.226 -0.226004,0.226 -0.226004,0.5775 l 0,4.0179 q 0,0.3516 0.226004,0.5776 0.226005,0.226 0.577567,0.226 l 2.410714,0 0,8.0357 -2.410714,0 q -0.351562,0 -0.577567,0.226 -0.226004,0.226 -0.226004,0.5776 l 0,4.0178 q 0,0.3516 0.226004,0.5776 0.226005,0.226 0.577567,0.226 l 11.25,0 q 0.351563,0 0.577567,-0.226 0.226004,-0.226 0.226004,-0.5776 z m -3.214285,-22.5 0,-4.0178 q 0,-0.3516 -0.226005,-0.5776 -0.226004,-0.226 -0.577567,-0.226 l -4.821428,0 q -0.351563,0 -0.577567,0.226 -0.226005,0.226 -0.226005,0.5776 l 0,4.0178 q 0,0.3516 0.226005,0.5776 0.226004,0.226 0.577567,0.226 l 4.821428,0 q 0.351563,0 0.577567,-0.226 0.226005,-0.226 0.226005,-0.5776 z m 13.484933,0.7785 q 2.586495,4.4196 2.586495,9.6679 0,5.2484 -2.586495,9.6931 -2.586496,4.4197 -7.03125,7.0062 -4.419643,2.5865 -9.667969,2.5865 -5.248326,0 -9.69308,-2.5865 -4.4196432,-2.5865 -7.0061387,-7.0062 -2.5864956,-4.4447 -2.5864956,-9.6931 0,-5.2483 2.5864956,-9.6679 2.5864955,-4.4448 7.0061387,-7.0313 4.444754,-2.5865 9.69308,-2.5865 5.248326,0 9.667969,2.5865 4.444754,2.5865 7.03125,7.0313 z" />
    </g>
  </g>
</svg>
