<?xml version="1.0" encoding="UTF-8" standalone="no"?>
<svg
   xmlns:dc="http://purl.org/dc/elements/1.1/"
   xmlns:cc="http://creativecommons.org/ns#"
   xmlns:rdf="http://www.w3.org/1999/02/22-rdf-syntax-ns#"
   xmlns:svg="http://www.w3.org/2000/svg"
   xmlns="http://www.w3.org/2000/svg"
   version="1.1"
   id="svg2"
   viewBox="0 0 41.999999 41.999999"
   height="42"
   width="42">
  <defs
     id="defs4" />
  <metadata
     id="metadata7">
    <rdf:RDF>
      <cc:Work
         rdf:about="">
        <dc:format>image/svg+xml</dc:format>
        <dc:type
           rdf:resource="http://purl.org/dc/dcmitype/StillImage" />
        <dc:title></dc:title>
      </cc:Work>
    </rdf:RDF>
  </metadata>
  <g
     transform="translate(0.89285713,-1011.2551)"
     id="layer1">
    <g
       transform="translate(0.10714293,-0.10715)"
       id="text4136"
       style="font-style:normal;font-variant:normal;font-weight:normal;font-stretch:normal;font-size:45px;line-height:125%;font-family:FontAwesome;-inkscape-font-specification:FontAwesome;letter-spacing:0px;word-spacing:0px;fill:#f3f3f3;fill-opacity:1;stroke:none;stroke-width:1px;stroke-linecap:butt;stroke-linejoin:miter;stroke-opacity:1">
      <path
         id="path4141"
         style="fill:#f3f3f3;fill-opacity:1"
         d="m 24.720982,1037.1083 q 3.314732,-3.3147 3.314732,-7.9603 0,-4.6457 -3.314732,-7.9353 -3.28962,-3.3147 -7.935268,-3.3147 -4.645647,0 -7.9603792,3.3147 -3.2896205,3.2896 -3.2896205,7.9353 0,4.6456 3.2896205,7.9603 3.3147322,3.2897 7.9603792,3.2897 4.645648,0 7.935268,-3.2897 z m 16.171875,12.9325 q 0,1.3058 -0.954241,2.2601 -0.954241,0.9542 -2.260045,0.9542 -1.356026,0 -2.260044,-0.9542 l -8.613281,-8.5882 q -4.494978,3.1138 -10.019532,3.1138 -3.59096,0 -6.8805801,-1.3811 -3.2645089,-1.4063 -5.6501116,-3.7667 -2.360491,-2.3856 -3.76674104,-5.6502 -1.38113839,-3.2896 -1.38113839,-6.8805 0,-3.591 1.38113839,-6.8555 1.40625004,-3.2896 3.76674104,-5.6501 2.3856027,-2.3856 5.6501116,-3.7668 3.2896201,-1.4062 6.8805801,-1.4062 3.59096,0 6.855469,1.4062 3.289621,1.3812 5.650112,3.7668 2.385602,2.3605 3.766741,5.6501 1.40625,3.2645 1.40625,6.8555 0,5.5245 -3.11384,10.0195 l 8.613282,8.6133 q 0.929129,0.9291 0.929129,2.26 z" />
    </g>
  </g>
</svg>
